<?xml version="1.0" standalone="no"?>
<!DOCTYPE svg PUBLIC "-//W3C//DTD SVG 20010904//EN"
 "http://www.w3.org/TR/2001/REC-SVG-20010904/DTD/svg10.dtd">
<svg version="1.0" xmlns="http://www.w3.org/2000/svg"
 width="512.000000pt" height="512.000000pt" viewBox="0 0 512.000000 512.000000"
 preserveAspectRatio="xMidYMid meet">
<metadata>
Created by potrace 1.15, written by Peter Selinger 2001-2017
</metadata>
<g transform="translate(0.000000,512.000000) scale(0.100000,-0.100000)"
fill="#171E22" stroke="#fff">
<path d="M4003 4905 c-67 -15 -164 -54 -225 -92 -21 -13 -687 -672 -1480
-1466 -794 -793 -1483 -1478 -1533 -1521 -49 -43 -99 -88 -110 -100 -26 -27
-218 -182 -332 -266 -105 -78 -207 -177 -253 -245 -29 -42 -35 -61 -38 -117
-4 -59 -1 -75 27 -130 47 -96 77 -131 243 -293 222 -218 312 -287 428 -333
183 -72 376 -79 592 -22 143 38 200 67 452 232 94 62 211 170 224 207 11 30
10 30 -64 67 -128 65 -248 180 -289 278 -19 44 -19 56 -1 56 7 0 51 19 97 42
110 54 208 151 264 260 22 43 45 78 50 78 20 0 114 -70 179 -134 55 -55 135
-161 148 -196 2 -5 25 -4 53 2 49 10 63 23 798 757 582 582 749 754 757 780 5
19 8 35 7 35 -1 1 -37 18 -80 40 -101 50 -221 161 -266 246 -18 33 -31 65 -29
71 2 6 28 19 57 30 130 45 263 165 323 290 18 38 38 69 44 69 7 0 39 -18 72
-40 77 -51 188 -170 226 -241 16 -30 30 -56 32 -57 1 -2 26 3 56 12 49 14 69
31 259 223 218 221 260 275 301 398 20 61 23 90 23 215 0 276 -49 361 -405
696 -102 96 -201 149 -317 169 -97 18 -209 18 -290 0z m-208 -830 c64 -31 149
-123 165 -181 32 -113 3 -262 -72 -374 -120 -181 -295 -290 -466 -293 -108 -2
-157 17 -228 87 -72 73 -94 126 -94 231 0 177 108 353 290 471 104 67 164 85
275 81 62 -2 102 -9 130 -22z m-1981 -1999 c106 -52 166 -151 166 -276 0 -281
-282 -560 -566 -560 -95 0 -162 29 -225 97 -63 67 -83 129 -77 243 4 80 8 97
46 174 70 140 165 237 300 305 115 58 257 65 356 17z"/>
<path d="M3481 3770 c-101 -73 -118 -185 -35 -225 104 -49 255 93 214 200 -15
40 -38 54 -91 55 -36 0 -55 -7 -88 -30z"/>
<path  d="M1510 1791 c-55 -29 -92 -82 -98 -140 -4 -46 -2 -53 27 -82 28 -28
37 -31 72 -26 81 11 155 85 166 165 4 31 0 44 -22 70 -22 27 -34 32 -69 32
-23 0 -57 -8 -76 -19z"/>
<path d="M4764 3075 c19 -44 36 -122 36 -161 0 -177 -179 -408 -375 -484 -73
-29 -205 -32 -272 -7 -34 13 -41 13 -37 2 7 -17 76 -71 87 -67 4 1 7 -2 7 -6
0 -4 23 -16 50 -26 40 -14 71 -17 143 -14 103 4 174 31 257 97 24 20 48 36 52
36 10 0 68 64 68 75 0 4 6 10 13 13 17 7 74 125 88 183 18 79 14 193 -8 234
-36 67 -56 95 -86 120 -27 22 -30 22 -23 5z"/>
<path d="M2770 1085 c111 -226 -70 -559 -351 -646 -82 -26 -199 -25 -257 1
-38 17 -41 17 -33 2 23 -39 90 -91 145 -111 104 -39 251 -16 360 55 63 41 158
142 204 215 59 97 80 262 44 354 -18 46 -21 50 -84 119 l-47 51 19 -40z"/>
</g>
</svg>
