
<svg xmlns="http://www.w3.org/2000/svg" xmlns:xlink="http://www.w3.org/1999/xlink" width="400" height="400" viewBox="0, 0, 400,400"> 
<path id="path0" d="M206.407 219.187 C 206.116 219.730,206.019 240.443,206.093 286.287 L 206.200 352.600 207.073 354.200 C 210.073 359.699,214.966 361.276,224.000 359.654 C 239.386 356.893,251.533 353.528,261.000 349.406 C 261.660 349.118,263.190 348.470,264.400 347.965 C 267.381 346.721,277.139 341.841,279.714 340.306 C 299.423 328.561,303.728 324.526,303.728 317.800 C 303.728 312.479,306.731 315.800,255.872 264.900 C 205.769 214.758,207.782 216.618,206.407 219.187 " stroke="none" fill="#171E22" fill-rule="evenodd"></path><path id="path1" d="M46.554 207.047 C 39.413 209.579,38.187 215.774,41.614 232.000 C 41.870 233.210,42.232 234.920,42.419 235.800 C 44.108 243.740,48.386 256.872,51.451 263.529 C 52.193 265.140,52.800 266.556,52.800 266.676 C 52.800 269.372,67.159 292.921,73.008 299.816 C 76.406 303.821,82.714 305.171,87.200 302.852 C 89.060 301.890,180.207 211.256,181.223 209.357 C 181.631 208.594,181.601 208.262,181.049 207.418 L 180.382 206.400 114.291 206.432 C 57.438 206.459,47.970 206.545,46.554 207.047 M143.756 264.900 C 93.125 315.602,95.811 312.639,95.804 317.800 C 95.795 324.462,99.972 328.364,119.886 340.299 C 134.615 349.127,154.211 355.912,175.800 359.661 C 184.746 361.214,189.960 359.409,192.452 353.897 L 193.400 351.800 193.505 285.837 C 193.602 224.743,193.560 219.819,192.943 219.137 C 191.229 217.243,192.887 215.701,143.756 264.900 " stroke="none" fill="#171E22" fill-rule="evenodd"></path><path id="path2" d="M179.200 39.852 C 172.145 40.862,167.252 41.784,161.200 43.241 C 154.125 44.944,143.627 48.302,139.400 50.214 C 138.300 50.712,136.230 51.607,134.800 52.205 C 122.779 57.226,102.792 69.604,98.130 74.913 C 95.567 77.832,94.888 83.236,96.608 87.031 C 97.745 89.541,189.861 181.600,191.236 181.600 C 193.799 181.600,193.620 186.929,193.505 114.163 L 193.400 48.200 192.444 46.085 C 190.249 41.226,185.432 38.960,179.200 39.852 M213.554 40.125 C 210.334 41.336,207.896 43.786,206.796 46.917 C 205.877 49.531,205.507 179.132,206.414 180.826 C 206.692 181.345,207.252 181.600,208.116 181.600 C 209.905 181.600,301.326 90.319,302.861 87.000 C 305.007 82.360,303.690 76.617,299.721 73.308 C 284.204 60.372,260.151 48.514,239.200 43.470 C 225.698 40.220,216.491 39.019,213.554 40.125 M79.000 96.046 C 75.097 97.430,74.019 98.355,70.078 103.701 C 58.750 119.066,49.808 136.930,45.002 153.800 C 44.626 155.120,44.169 156.650,43.986 157.200 C 43.804 157.750,43.368 159.460,43.017 161.000 C 42.667 162.540,42.213 164.520,42.009 165.400 C 37.874 183.266,38.618 189.027,45.535 192.693 C 47.929 193.962,51.632 194.027,115.932 193.913 C 187.715 193.787,181.600 194.027,181.600 191.340 C 181.600 189.789,89.702 98.187,86.815 96.860 C 84.359 95.732,80.901 95.372,79.000 96.046 M314.400 96.262 C 311.525 97.213,308.052 100.544,264.218 144.384 C 214.244 194.365,216.608 191.812,218.932 193.290 C 219.975 193.954,350.913 193.649,352.882 192.978 C 358.495 191.066,361.056 185.285,359.641 177.720 C 359.443 176.664,359.068 174.540,358.807 173.000 C 354.423 147.152,344.391 123.810,328.665 102.868 C 324.134 96.835,319.355 94.622,314.400 96.262 M81.900 206.300 C 99.775 206.358,129.025 206.358,146.900 206.300 C 164.775 206.242,150.150 206.195,114.400 206.195 C 78.650 206.195,64.025 206.242,81.900 206.300 M39.320 217.600 C 39.320 218.810,39.395 219.305,39.487 218.700 C 39.578 218.095,39.578 217.105,39.487 216.500 C 39.395 215.895,39.320 216.390,39.320 217.600 M80.900 304.287 C 81.505 304.378,82.495 304.378,83.100 304.287 C 83.705 304.195,83.210 304.120,82.000 304.120 C 80.790 304.120,80.295 304.195,80.900 304.287 " stroke="none" fill="#171E22" fill-rule="evenodd">
</path>
<path id="path3" d="M189.906 24.820 C 180.688 25.253,166.803 27.250,159.600 29.177 C 158.830 29.383,156.040 30.119,153.400 30.813 C 101.954 44.330,57.670 83.763,37.070 134.400 C 34.211 141.427,30.300 153.392,29.486 157.600 C 29.380 158.150,28.746 161.120,28.078 164.200 C 26.174 172.972,25.343 178.708,24.800 186.800 C 24.076 197.610,24.449 214.019,25.595 221.800 C 26.878 230.504,27.113 231.798,28.676 238.800 C 44.001 307.455,100.753 361.167,170.400 372.934 C 181.455 374.802,184.271 375.000,199.800 375.000 C 215.329 375.000,218.145 374.802,229.200 372.934 C 235.785 371.822,243.465 370.103,247.800 368.771 C 251.602 367.604,260.319 364.732,261.000 364.424 C 261.440 364.224,263.690 363.312,266.000 362.396 C 278.355 357.499,297.442 346.598,305.850 339.635 C 306.538 339.066,308.248 337.700,309.650 336.600 C 331.944 319.113,351.965 292.119,362.455 265.400 C 363.319 263.200,364.195 261.040,364.403 260.600 C 365.449 258.386,369.812 243.954,370.510 240.400 C 370.618 239.850,371.246 236.700,371.905 233.400 C 374.407 220.871,374.985 214.616,374.993 200.000 C 375.001 185.822,374.530 180.461,372.164 167.800 C 369.948 155.945,365.750 141.592,362.220 133.800 C 361.921 133.140,361.189 131.430,360.593 130.000 C 344.022 90.238,307.862 54.706,267.000 38.033 C 264.140 36.866,261.440 35.751,261.000 35.556 C 259.423 34.856,248.137 31.258,245.000 30.456 C 231.331 26.961,221.407 25.423,208.434 24.789 C 200.228 24.389,199.028 24.391,189.906 24.820 M186.107 40.230 C 188.656 41.099,191.291 43.533,192.444 46.085 L 193.400 48.200 193.505 114.163 C 193.620 186.929,193.799 181.600,191.236 181.600 C 189.861 181.600,97.745 89.541,96.608 87.031 C 94.888 83.236,95.567 77.832,98.130 74.913 C 102.792 69.604,122.779 57.226,134.800 52.205 C 136.230 51.607,138.300 50.712,139.400 50.214 C 143.627 48.302,154.125 44.944,161.200 43.241 C 167.252 41.784,172.145 40.862,179.200 39.852 C 181.662 39.500,184.403 39.650,186.107 40.230 M225.400 40.583 C 249.455 44.844,268.862 52.368,288.170 64.920 C 301.101 73.326,303.743 76.218,303.771 82.000 C 303.798 87.471,306.918 84.014,255.670 135.300 C 205.823 185.185,207.779 183.377,206.414 180.826 C 205.507 179.132,205.877 49.531,206.796 46.917 C 209.109 40.335,214.205 38.600,225.400 40.583 M86.815 96.860 C 89.702 98.187,181.600 189.789,181.600 191.340 C 181.600 194.027,187.715 193.787,115.932 193.913 C 51.632 194.027,47.929 193.962,45.535 192.693 C 38.618 189.027,37.874 183.266,42.009 165.400 C 42.213 164.520,42.667 162.540,43.017 161.000 C 43.368 159.460,43.804 157.750,43.986 157.200 C 44.169 156.650,44.626 155.120,45.002 153.800 C 50.290 135.239,64.943 107.516,74.081 98.783 C 77.419 95.593,82.415 94.839,86.815 96.860 M321.701 96.571 C 324.058 97.412,325.646 98.848,328.665 102.868 C 344.391 123.810,354.423 147.152,358.807 173.000 C 359.068 174.540,359.443 176.664,359.641 177.720 C 361.056 185.285,358.495 191.066,352.882 192.978 C 350.913 193.649,219.975 193.954,218.932 193.290 C 216.608 191.812,214.244 194.365,264.218 144.384 C 308.052 100.544,311.525 97.213,314.400 96.262 C 315.624 95.857,320.249 96.053,321.701 96.571 M181.032 206.976 C 182.305 208.717,182.556 208.450,134.900 256.059 C 83.640 307.268,86.776 304.400,82.045 304.400 C 76.951 304.400,74.468 302.481,68.264 293.748 C 57.618 278.762,48.840 260.667,44.570 244.904 C 37.092 217.298,37.895 208.440,48.059 206.428 C 52.215 205.605,180.416 206.134,181.032 206.976 M353.580 207.600 C 359.724 211.360,360.657 215.789,358.036 228.755 C 357.796 229.940,357.600 231.515,357.600 232.255 C 357.600 232.995,357.439 233.600,357.242 233.600 C 357.045 233.600,356.790 234.275,356.675 235.100 C 356.559 235.925,356.283 237.320,356.060 238.200 C 355.838 239.080,355.422 240.925,355.136 242.300 C 354.851 243.675,354.478 244.800,354.308 244.800 C 354.139 244.800,354.000 245.252,354.000 245.805 C 354.000 246.358,353.826 247.123,353.613 247.505 C 353.022 248.564,352.000 251.929,352.000 252.814 C 352.000 253.246,351.820 253.600,351.600 253.600 C 351.380 253.600,351.200 254.050,351.200 254.600 C 351.200 255.150,351.020 255.600,350.800 255.600 C 350.580 255.600,350.400 256.039,350.400 256.576 C 350.400 257.113,350.240 257.652,350.044 257.773 C 349.849 257.894,349.570 258.464,349.426 259.040 C 349.281 259.617,348.790 260.923,348.335 261.944 C 347.879 262.965,347.243 264.430,346.921 265.200 C 345.804 267.871,341.798 275.801,341.500 275.933 C 341.335 276.007,341.200 276.277,341.200 276.534 C 341.200 277.011,337.587 283.405,336.821 284.283 C 336.590 284.549,336.400 284.954,336.400 285.183 C 336.400 285.412,336.220 285.600,336.000 285.600 C 335.780 285.600,335.600 285.808,335.600 286.062 C 335.600 286.316,335.150 287.114,334.600 287.836 C 334.050 288.557,333.600 289.339,333.600 289.573 C 333.600 289.808,333.448 290.000,333.263 290.000 C 333.078 290.000,332.587 290.630,332.172 291.400 C 331.757 292.170,331.279 292.800,331.109 292.800 C 330.939 292.800,330.800 293.070,330.800 293.400 C 330.800 293.730,330.659 294.000,330.486 294.000 C 330.314 294.000,329.873 294.495,329.506 295.100 C 329.140 295.705,328.426 296.690,327.920 297.290 C 327.414 297.889,326.550 299.007,326.000 299.774 C 324.907 301.296,321.678 303.200,320.187 303.200 C 319.670 303.200,319.136 303.380,319.000 303.600 C 318.864 303.820,318.234 304.000,317.600 304.000 C 316.966 304.000,316.336 303.820,316.200 303.600 C 316.064 303.380,315.434 303.200,314.800 303.200 C 314.166 303.200,313.548 303.040,313.427 302.844 C 313.306 302.649,312.781 302.382,312.259 302.251 C 311.716 302.114,291.548 282.250,265.056 255.758 C 217.710 208.413,217.715 208.418,219.072 207.061 C 219.701 206.432,352.542 206.965,353.580 207.600 M192.943 219.137 C 193.560 219.819,193.602 224.743,193.505 285.837 L 193.400 351.800 192.452 353.897 C 189.960 359.409,184.746 361.214,175.800 359.661 C 154.211 355.912,134.615 349.127,119.886 340.299 C 99.972 328.364,95.795 324.462,95.804 317.800 C 95.811 312.639,93.125 315.602,143.756 264.900 C 192.887 215.701,191.229 217.243,192.943 219.137 M255.872 264.900 C 306.731 315.800,303.728 312.479,303.728 317.800 C 303.728 324.526,299.423 328.561,279.714 340.306 C 277.139 341.841,267.381 346.721,264.400 347.965 C 263.190 348.470,261.660 349.118,261.000 349.406 C 251.533 353.528,239.386 356.893,224.000 359.654 C 214.966 361.276,210.073 359.699,207.073 354.200 L 206.200 352.600 206.093 286.287 C 206.019 240.443,206.116 219.730,206.407 219.187 C 207.782 216.618,205.769 214.758,255.872 264.900 " stroke="none" fill="#fff" fill-rule="evenodd">
</path>
<path id="path4" d="M193.417 11.173 C 193.249 11.444,191.039 11.600,187.376 11.600 C 183.792 11.600,181.600 11.752,181.600 12.000 C 181.600 12.233,180.267 12.400,178.400 12.400 C 176.640 12.400,175.200 12.553,175.200 12.741 C 175.200 12.929,173.265 13.207,170.901 13.360 C 168.537 13.513,166.431 13.809,166.221 14.019 C 166.011 14.229,165.066 14.400,164.120 14.400 C 163.174 14.400,162.400 14.580,162.400 14.800 C 162.400 15.020,161.590 15.200,160.600 15.200 C 159.610 15.200,158.800 15.359,158.800 15.553 C 158.800 15.748,157.632 16.032,156.204 16.185 C 154.777 16.338,153.506 16.629,153.381 16.831 C 153.255 17.034,152.533 17.200,151.776 17.200 C 151.019 17.200,150.400 17.380,150.400 17.600 C 150.400 17.820,149.770 18.000,149.000 18.000 C 148.230 18.000,147.600 18.180,147.600 18.400 C 147.600 18.620,147.150 18.800,146.600 18.800 C 146.050 18.800,145.600 18.955,145.600 19.145 C 145.600 19.335,144.604 19.607,143.386 19.750 C 142.169 19.893,140.819 20.188,140.386 20.405 C 139.954 20.622,139.242 20.980,138.805 21.200 C 138.368 21.420,137.648 21.600,137.205 21.600 C 136.762 21.600,136.400 21.764,136.400 21.965 C 136.400 22.166,135.681 22.451,134.802 22.600 C 133.923 22.748,133.103 23.034,132.978 23.235 C 132.854 23.436,132.313 23.600,131.776 23.600 C 131.239 23.600,130.800 23.780,130.800 24.000 C 130.800 24.220,130.440 24.400,130.000 24.400 C 129.560 24.400,129.200 24.580,129.200 24.800 C 129.200 25.020,128.841 25.200,128.403 25.200 C 127.417 25.200,124.400 26.477,124.400 26.894 C 124.400 27.062,123.950 27.200,123.400 27.200 C 122.850 27.200,122.400 27.380,122.400 27.600 C 122.400 27.820,122.074 28.000,121.676 28.000 C 121.279 28.000,120.604 28.264,120.176 28.587 C 119.749 28.910,119.085 29.180,118.700 29.187 C 118.315 29.194,118.000 29.380,118.000 29.600 C 118.000 29.820,117.640 30.000,117.200 30.000 C 116.760 30.000,116.400 30.180,116.400 30.400 C 116.400 30.620,116.202 30.800,115.960 30.800 C 115.475 30.800,112.717 32.026,112.400 32.383 C 112.290 32.507,111.165 33.123,109.900 33.752 C 108.635 34.381,107.600 35.054,107.600 35.248 C 107.600 35.441,107.240 35.600,106.800 35.600 C 106.360 35.600,106.000 35.780,106.000 36.000 C 106.000 36.220,105.730 36.400,105.400 36.400 C 105.070 36.400,104.800 36.580,104.800 36.800 C 104.800 37.020,104.453 37.200,104.029 37.200 C 103.604 37.200,102.987 37.470,102.657 37.800 C 102.327 38.130,101.864 38.400,101.629 38.400 C 101.393 38.400,101.200 38.580,101.200 38.800 C 101.200 39.020,101.016 39.200,100.791 39.200 C 100.306 39.200,97.058 41.269,96.867 41.700 C 96.793 41.865,96.478 42.000,96.167 42.000 C 95.855 42.000,95.600 42.162,95.600 42.361 C 95.600 42.559,95.058 42.911,94.395 43.142 C 93.732 43.373,93.083 43.841,92.952 44.181 C 92.821 44.521,92.374 44.800,91.957 44.800 C 91.541 44.800,91.200 44.941,91.200 45.114 C 91.200 45.286,90.615 45.769,89.900 46.185 C 89.185 46.602,88.309 47.271,87.953 47.672 C 87.597 48.072,87.145 48.400,86.949 48.400 C 86.753 48.400,86.107 48.850,85.513 49.400 C 84.920 49.950,84.329 50.400,84.199 50.400 C 84.070 50.400,83.544 50.805,83.032 51.300 C 82.520 51.795,81.590 52.560,80.965 53.000 C 80.340 53.440,78.970 54.655,77.920 55.700 C 76.870 56.745,75.829 57.600,75.607 57.600 C 75.098 57.600,56.800 75.914,56.800 76.424 C 56.800 76.631,56.125 77.483,55.300 78.317 C 54.475 79.152,53.440 80.345,53.000 80.968 C 52.560 81.591,51.795 82.520,51.300 83.032 C 50.805 83.544,50.400 84.070,50.400 84.199 C 50.400 84.329,49.950 84.920,49.400 85.513 C 48.850 86.107,48.400 86.753,48.400 86.949 C 48.400 87.145,48.072 87.597,47.672 87.953 C 47.271 88.309,46.602 89.185,46.185 89.900 C 45.769 90.615,45.286 91.200,45.114 91.200 C 44.941 91.200,44.800 91.541,44.800 91.957 C 44.800 92.374,44.521 92.821,44.181 92.952 C 43.841 93.083,43.373 93.732,43.142 94.395 C 42.911 95.058,42.559 95.600,42.361 95.600 C 42.162 95.600,42.000 95.804,42.000 96.053 C 42.000 96.302,41.666 96.797,41.257 97.153 C 40.849 97.509,40.387 98.205,40.230 98.700 C 40.074 99.195,39.778 99.600,39.573 99.600 C 39.368 99.600,39.200 99.878,39.200 100.217 C 39.200 100.556,38.828 101.231,38.373 101.717 C 37.917 102.203,37.445 103.095,37.323 103.700 C 37.200 104.305,36.943 104.800,36.750 104.800 C 36.557 104.800,36.400 105.055,36.400 105.367 C 36.400 105.678,36.258 105.993,36.086 106.067 C 35.518 106.307,34.059 108.626,33.783 109.724 C 33.635 110.316,33.353 110.800,33.157 110.800 C 32.960 110.800,32.800 111.160,32.800 111.600 C 32.800 112.040,32.662 112.400,32.494 112.400 C 32.173 112.400,30.800 115.320,30.800 116.003 C 30.800 116.221,30.620 116.400,30.400 116.400 C 30.180 116.400,30.000 116.760,30.000 117.200 C 30.000 117.640,29.820 118.000,29.600 118.000 C 29.380 118.000,29.200 118.360,29.200 118.800 C 29.200 119.240,29.028 119.600,28.818 119.600 C 28.608 119.600,28.318 120.230,28.174 121.000 C 28.029 121.770,27.751 122.400,27.555 122.400 C 27.360 122.400,27.200 122.670,27.200 123.000 C 27.200 123.330,27.020 123.600,26.800 123.600 C 26.580 123.600,26.400 124.050,26.400 124.600 C 26.400 125.150,26.236 125.600,26.035 125.600 C 25.834 125.600,25.549 126.320,25.400 127.200 C 25.251 128.080,24.966 128.800,24.765 128.800 C 24.564 128.800,24.400 129.250,24.400 129.800 C 24.400 130.350,24.264 130.800,24.098 130.800 C 23.645 130.800,22.867 132.778,22.565 134.700 C 22.418 135.635,22.141 136.400,21.949 136.400 C 21.757 136.400,21.600 136.850,21.600 137.400 C 21.600 137.950,21.420 138.400,21.200 138.400 C 20.980 138.400,20.800 138.839,20.800 139.376 C 20.800 139.913,20.637 140.454,20.437 140.577 C 20.238 140.700,19.951 141.701,19.800 142.800 C 19.649 143.900,19.362 144.800,19.162 144.800 C 18.963 144.800,18.800 145.239,18.800 145.776 C 18.800 146.313,18.620 146.864,18.400 147.000 C 18.180 147.136,18.000 147.777,18.000 148.424 C 18.000 149.071,17.820 149.600,17.600 149.600 C 17.380 149.600,17.200 150.219,17.200 150.976 C 17.200 151.733,17.034 152.455,16.831 152.581 C 16.629 152.706,16.337 153.979,16.184 155.410 C 16.031 156.841,15.747 158.109,15.553 158.229 C 15.359 158.349,15.200 159.157,15.200 160.024 C 15.200 160.891,15.020 161.600,14.800 161.600 C 14.580 161.600,14.400 162.374,14.400 163.320 C 14.400 164.266,14.227 165.213,14.015 165.425 C 13.803 165.637,13.506 167.563,13.356 169.705 C 13.205 171.847,12.928 173.600,12.741 173.600 C 12.553 173.600,12.400 174.849,12.400 176.376 C 12.400 177.903,12.220 179.264,12.000 179.400 C 11.773 179.540,11.600 181.530,11.600 184.000 C 11.600 186.470,11.427 188.460,11.200 188.600 C 10.655 188.937,10.655 211.063,11.200 211.400 C 11.427 211.540,11.600 213.530,11.600 216.000 C 11.600 218.470,11.773 220.460,12.000 220.600 C 12.220 220.736,12.400 222.097,12.400 223.624 C 12.400 225.151,12.554 226.400,12.743 226.400 C 12.931 226.400,13.212 228.245,13.366 230.500 C 13.520 232.755,13.815 234.660,14.023 234.733 C 14.230 234.807,14.400 235.662,14.400 236.633 C 14.400 237.605,14.580 238.400,14.800 238.400 C 15.020 238.400,15.200 239.210,15.200 240.200 C 15.200 241.190,15.359 242.000,15.553 242.000 C 15.748 242.000,16.032 243.168,16.185 244.596 C 16.338 246.023,16.629 247.294,16.831 247.419 C 17.034 247.545,17.200 248.267,17.200 249.024 C 17.200 249.781,17.380 250.400,17.600 250.400 C 17.820 250.400,18.000 250.929,18.000 251.576 C 18.000 252.223,18.180 252.864,18.400 253.000 C 18.620 253.136,18.800 253.687,18.800 254.224 C 18.800 254.761,18.963 255.200,19.162 255.200 C 19.362 255.200,19.649 256.100,19.800 257.200 C 19.951 258.299,20.238 259.300,20.437 259.423 C 20.637 259.546,20.800 260.087,20.800 260.624 C 20.800 261.161,20.980 261.600,21.200 261.600 C 21.420 261.600,21.600 262.050,21.600 262.600 C 21.600 263.150,21.756 263.600,21.947 263.600 C 22.138 263.600,22.397 264.361,22.522 265.291 C 22.646 266.222,22.940 267.047,23.174 267.125 C 23.408 267.203,23.600 267.702,23.600 268.233 C 23.600 268.765,23.780 269.200,24.000 269.200 C 24.220 269.200,24.400 269.539,24.400 269.954 C 24.400 270.369,24.669 271.224,24.998 271.854 C 25.326 272.484,25.596 273.315,25.598 273.700 C 25.599 274.085,25.780 274.400,26.000 274.400 C 26.220 274.400,26.400 274.639,26.400 274.932 C 26.400 275.225,26.805 276.269,27.300 277.252 C 27.795 278.236,28.459 279.706,28.775 280.520 C 29.091 281.334,29.496 282.000,29.675 282.000 C 29.854 282.000,30.000 282.360,30.000 282.800 C 30.000 283.240,30.180 283.600,30.400 283.600 C 30.620 283.600,30.800 283.779,30.800 283.997 C 30.800 284.680,32.173 287.600,32.494 287.600 C 32.662 287.600,32.800 287.960,32.800 288.400 C 32.800 288.840,32.980 289.200,33.200 289.200 C 33.420 289.200,33.600 289.398,33.600 289.640 C 33.600 290.408,34.932 292.976,35.680 293.647 C 36.076 294.003,36.400 294.588,36.400 294.947 C 36.400 295.306,36.560 295.600,36.757 295.600 C 36.953 295.600,37.226 296.050,37.364 296.600 C 37.502 297.150,37.792 297.600,38.008 297.600 C 38.223 297.600,38.400 297.870,38.400 298.200 C 38.400 298.530,38.580 298.800,38.800 298.800 C 39.020 298.800,39.200 299.160,39.200 299.600 C 39.200 300.040,39.368 300.400,39.573 300.400 C 39.778 300.400,40.074 300.805,40.230 301.300 C 40.387 301.795,40.849 302.491,41.257 302.847 C 41.666 303.203,42.000 303.698,42.000 303.947 C 42.000 304.196,42.177 304.400,42.392 304.400 C 42.608 304.400,42.899 304.854,43.038 305.409 C 43.177 305.964,43.587 306.639,43.948 306.909 C 44.309 307.179,44.963 308.091,45.402 308.936 C 45.841 309.781,46.695 310.994,47.300 311.633 C 47.905 312.271,48.400 312.931,48.400 313.100 C 48.400 313.270,48.850 313.893,49.400 314.487 C 49.950 315.080,50.400 315.671,50.400 315.801 C 50.400 315.930,50.805 316.470,51.300 316.999 C 52.663 318.457,53.200 319.140,53.200 319.418 C 53.200 319.556,54.190 320.636,55.400 321.817 C 56.610 322.999,57.600 324.156,57.600 324.390 C 57.600 324.899,75.504 342.800,76.013 342.800 C 76.208 342.800,77.102 343.520,78.000 344.400 C 78.898 345.280,79.895 346.000,80.216 346.000 C 80.537 346.000,80.800 346.173,80.800 346.384 C 80.800 346.827,82.841 348.800,83.300 348.800 C 83.469 348.800,84.172 349.340,84.863 350.000 C 85.554 350.660,86.317 351.203,86.559 351.207 C 86.802 351.211,87.424 351.661,87.942 352.207 C 88.460 352.753,89.054 353.200,89.261 353.200 C 89.468 353.200,90.055 353.650,90.565 354.200 C 91.075 354.750,91.767 355.200,92.103 355.200 C 92.439 355.200,92.821 355.479,92.952 355.819 C 93.083 356.159,93.732 356.627,94.395 356.858 C 95.058 357.089,95.600 357.441,95.600 357.639 C 95.600 357.838,95.788 358.000,96.017 358.000 C 96.246 358.000,96.824 358.364,97.301 358.808 C 97.778 359.253,98.851 359.917,99.684 360.285 C 100.518 360.653,101.200 361.099,101.200 361.277 C 101.200 361.455,101.470 361.600,101.800 361.600 C 102.130 361.600,102.400 361.780,102.400 362.000 C 102.400 362.220,102.760 362.400,103.200 362.400 C 103.640 362.400,104.000 362.577,104.000 362.792 C 104.000 363.008,104.450 363.298,105.000 363.436 C 105.550 363.574,106.000 363.847,106.000 364.043 C 106.000 364.240,106.360 364.400,106.800 364.400 C 107.240 364.400,107.600 364.580,107.600 364.800 C 107.600 365.020,107.870 365.200,108.200 365.200 C 108.530 365.200,108.800 365.345,108.800 365.523 C 108.800 365.701,109.565 366.180,110.500 366.587 C 111.435 366.995,112.290 367.444,112.400 367.585 C 112.592 367.831,113.893 368.454,116.700 369.644 C 117.415 369.947,118.000 370.331,118.000 370.498 C 118.000 370.664,118.315 370.806,118.700 370.813 C 119.085 370.820,119.749 371.090,120.176 371.413 C 120.604 371.736,121.369 372.000,121.876 372.000 C 122.384 372.000,122.800 372.180,122.800 372.400 C 122.800 372.620,123.160 372.800,123.600 372.800 C 124.040 372.800,124.400 372.936,124.400 373.102 C 124.400 373.483,126.195 374.250,127.900 374.598 C 128.615 374.744,129.200 375.029,129.200 375.232 C 129.200 375.434,129.650 375.600,130.200 375.600 C 130.750 375.600,131.200 375.780,131.200 376.000 C 131.200 376.220,131.560 376.400,132.000 376.400 C 132.440 376.400,132.800 376.580,132.800 376.800 C 132.800 377.020,133.239 377.200,133.776 377.200 C 134.313 377.200,134.854 377.363,134.977 377.563 C 135.100 377.762,136.101 378.049,137.200 378.200 C 138.300 378.351,139.200 378.638,139.200 378.838 C 139.200 379.037,139.650 379.200,140.200 379.200 C 140.750 379.200,141.200 379.380,141.200 379.600 C 141.200 379.820,141.639 380.000,142.176 380.000 C 142.713 380.000,143.254 380.163,143.377 380.363 C 143.500 380.562,144.501 380.849,145.600 381.000 C 146.700 381.151,147.600 381.438,147.600 381.638 C 147.600 381.837,148.230 382.000,149.000 382.000 C 149.770 382.000,150.400 382.180,150.400 382.400 C 150.400 382.620,150.994 382.800,151.720 382.800 C 152.446 382.800,153.215 382.975,153.429 383.189 C 153.643 383.403,155.119 383.698,156.709 383.846 C 158.299 383.994,159.600 384.269,159.600 384.457 C 159.600 384.646,160.230 384.800,161.000 384.800 C 161.770 384.800,162.400 384.980,162.400 385.200 C 162.400 385.420,163.289 385.600,164.376 385.600 C 165.463 385.600,166.455 385.765,166.579 385.966 C 166.704 386.168,168.784 386.461,171.203 386.618 C 173.621 386.775,175.600 387.060,175.600 387.251 C 175.600 387.443,177.029 387.600,178.776 387.600 C 180.523 387.600,182.064 387.780,182.200 388.000 C 182.349 388.241,185.130 388.400,189.200 388.400 C 193.270 388.400,196.051 388.559,196.200 388.800 C 196.526 389.328,203.200 389.328,203.200 388.800 C 203.200 388.549,205.725 388.400,209.976 388.400 C 214.063 388.400,216.851 388.241,217.000 388.000 C 217.136 387.780,218.677 387.600,220.424 387.600 C 222.171 387.600,223.600 387.440,223.600 387.244 C 223.600 387.049,225.762 386.759,228.404 386.600 C 231.046 386.441,233.307 386.151,233.427 385.956 C 233.548 385.760,234.357 385.600,235.224 385.600 C 236.091 385.600,236.800 385.420,236.800 385.200 C 236.800 384.980,237.610 384.800,238.600 384.800 C 239.590 384.800,240.400 384.638,240.400 384.441 C 240.400 384.243,241.660 383.955,243.200 383.800 C 244.740 383.645,246.000 383.357,246.000 383.159 C 246.000 382.962,246.630 382.800,247.400 382.800 C 248.170 382.800,248.800 382.620,248.800 382.400 C 248.800 382.180,249.430 382.000,250.200 382.000 C 250.970 382.000,251.600 381.841,251.600 381.646 C 251.600 381.451,252.590 381.168,253.800 381.017 C 255.010 380.866,256.000 380.575,256.000 380.371 C 256.000 380.167,256.529 380.000,257.176 380.000 C 257.823 380.000,258.464 379.820,258.600 379.600 C 258.736 379.380,259.287 379.200,259.824 379.200 C 260.361 379.200,260.800 379.020,260.800 378.800 C 260.800 378.580,261.205 378.399,261.700 378.398 C 262.195 378.396,263.116 378.126,263.746 377.798 C 264.376 377.469,265.231 377.200,265.646 377.200 C 266.061 377.200,266.400 377.020,266.400 376.800 C 266.400 376.580,266.762 376.400,267.205 376.400 C 267.973 376.400,269.574 375.683,270.000 375.149 C 270.110 375.011,270.965 374.770,271.900 374.614 C 272.835 374.458,273.600 374.166,273.600 373.965 C 273.600 373.764,273.870 373.600,274.200 373.600 C 274.530 373.600,274.800 373.420,274.800 373.200 C 274.800 372.980,275.132 372.800,275.539 372.800 C 275.945 372.800,276.800 372.552,277.439 372.250 C 278.077 371.947,279.185 371.453,279.900 371.152 C 280.615 370.851,281.200 370.469,281.200 370.302 C 281.200 370.136,281.560 370.000,282.000 370.000 C 282.440 370.000,282.800 369.828,282.800 369.618 C 282.800 369.408,283.430 369.118,284.200 368.974 C 284.970 368.829,285.600 368.551,285.600 368.355 C 285.600 368.160,285.870 368.000,286.200 368.000 C 286.530 368.000,286.800 367.820,286.800 367.600 C 286.800 367.380,287.160 367.200,287.600 367.200 C 288.040 367.200,288.400 367.034,288.400 366.832 C 288.400 366.629,288.916 366.350,289.546 366.212 C 290.176 366.073,291.069 365.609,291.529 365.180 C 291.990 364.751,292.554 364.400,292.783 364.400 C 293.012 364.400,293.200 364.243,293.200 364.050 C 293.200 363.858,293.695 363.600,294.300 363.477 C 294.905 363.355,295.760 362.922,296.200 362.514 C 296.640 362.107,297.630 361.460,298.400 361.076 C 300.419 360.070,301.302 359.493,302.041 358.700 C 302.400 358.315,302.968 358.000,303.304 358.000 C 303.640 358.000,304.018 357.730,304.145 357.400 C 304.271 357.070,304.701 356.800,305.099 356.800 C 305.497 356.800,306.083 356.440,306.400 356.000 C 306.717 355.560,307.207 355.200,307.488 355.200 C 307.770 355.200,308.000 355.032,308.000 354.827 C 308.000 354.622,308.339 354.346,308.753 354.215 C 309.168 354.083,310.066 353.441,310.750 352.788 C 311.433 352.135,312.166 351.600,312.378 351.600 C 312.590 351.600,313.214 351.150,313.764 350.600 C 314.314 350.050,314.869 349.600,314.999 349.600 C 315.261 349.600,315.964 349.044,317.401 347.700 C 317.930 347.205,318.552 346.800,318.782 346.800 C 319.012 346.800,319.201 346.665,319.201 346.500 C 319.202 346.335,319.743 345.840,320.403 345.400 C 321.064 344.960,321.706 344.285,321.829 343.900 C 321.953 343.515,322.344 343.200,322.699 343.200 C 323.054 343.200,324.752 341.760,326.472 340.000 C 328.192 338.240,329.755 336.800,329.945 336.800 C 330.381 336.800,336.400 330.841,336.400 330.409 C 336.400 330.233,337.930 328.534,339.800 326.635 C 341.670 324.735,343.200 322.927,343.200 322.617 C 343.200 322.307,343.515 321.953,343.900 321.829 C 344.285 321.706,344.960 321.064,345.400 320.403 C 345.840 319.743,346.335 319.202,346.500 319.201 C 346.665 319.201,346.800 319.021,346.800 318.803 C 346.800 318.442,347.812 317.111,349.100 315.775 C 349.375 315.490,349.600 315.146,349.600 315.010 C 349.600 314.875,350.050 314.314,350.600 313.764 C 351.150 313.214,351.600 312.542,351.600 312.270 C 351.600 311.999,351.960 311.517,352.400 311.200 C 352.840 310.883,353.200 310.470,353.200 310.283 C 353.200 310.096,353.425 309.692,353.700 309.385 C 354.887 308.062,355.200 307.609,355.200 307.217 C 355.200 306.988,355.359 306.800,355.554 306.800 C 355.749 306.800,356.204 306.215,356.565 305.500 C 357.508 303.634,358.113 302.696,358.820 302.006 C 359.162 301.673,359.792 300.708,360.220 299.861 C 361.683 296.975,361.790 296.800,362.095 296.800 C 362.263 296.800,362.400 296.552,362.400 296.249 C 362.400 295.946,362.670 295.474,363.000 295.200 C 363.330 294.926,363.600 294.364,363.600 293.951 C 363.600 293.538,363.780 293.200,364.000 293.200 C 364.220 293.200,364.400 292.930,364.400 292.600 C 364.400 292.270,364.580 292.000,364.800 292.000 C 365.020 292.000,365.200 291.640,365.200 291.200 C 365.200 290.760,365.345 290.400,365.523 290.400 C 365.701 290.400,366.180 289.635,366.587 288.700 C 366.995 287.765,367.444 286.910,367.585 286.800 C 367.952 286.514,369.200 283.762,369.200 283.240 C 369.200 282.998,369.380 282.800,369.600 282.800 C 369.820 282.800,370.000 282.440,370.000 282.000 C 370.000 281.560,370.136 281.200,370.302 281.200 C 370.696 281.200,371.511 279.343,371.841 277.697 C 371.983 276.984,372.257 276.400,372.450 276.400 C 372.643 276.400,372.800 276.040,372.800 275.600 C 372.800 275.160,372.936 274.800,373.102 274.800 C 373.496 274.800,374.311 272.943,374.641 271.297 C 374.783 270.584,375.058 270.000,375.250 270.000 C 375.443 270.000,375.600 269.550,375.600 269.000 C 375.600 268.450,375.780 268.000,376.000 268.000 C 376.220 268.000,376.400 267.550,376.400 267.000 C 376.400 266.450,376.535 266.000,376.700 266.000 C 376.865 266.000,377.333 264.875,377.740 263.500 C 378.147 262.125,378.642 260.687,378.840 260.305 C 379.038 259.923,379.200 259.248,379.200 258.805 C 379.200 258.362,379.360 258.000,379.555 258.000 C 379.750 258.000,380.012 257.505,380.137 256.900 C 381.132 252.102,381.374 251.200,381.667 251.200 C 381.850 251.200,382.000 250.581,382.000 249.824 C 382.000 249.067,382.180 248.336,382.400 248.200 C 382.620 248.064,382.800 247.459,382.800 246.856 C 382.800 246.253,382.975 245.585,383.189 245.371 C 383.403 245.157,383.698 243.681,383.846 242.091 C 383.994 240.501,384.269 239.200,384.457 239.200 C 384.646 239.200,384.800 238.390,384.800 237.400 C 384.800 236.410,384.980 235.600,385.200 235.600 C 385.420 235.600,385.600 234.790,385.600 233.800 C 385.600 232.810,385.762 232.000,385.960 232.000 C 386.158 232.000,386.449 229.750,386.608 227.000 C 386.766 224.250,387.055 222.000,387.248 222.000 C 387.442 222.000,387.600 220.290,387.600 218.200 C 387.600 215.933,387.761 214.400,388.000 214.400 C 388.259 214.400,388.400 209.333,388.400 200.000 C 388.400 190.667,388.259 185.600,388.000 185.600 C 387.761 185.600,387.600 184.067,387.600 181.800 C 387.600 179.710,387.446 178.000,387.259 178.000 C 387.071 178.000,386.791 175.885,386.637 173.300 C 386.483 170.715,386.187 168.429,385.978 168.220 C 385.770 168.011,385.600 166.976,385.600 165.920 C 385.600 164.864,385.420 164.000,385.200 164.000 C 384.980 164.000,384.800 163.190,384.800 162.200 C 384.800 161.210,384.638 160.400,384.441 160.400 C 384.243 160.400,383.955 159.140,383.800 157.600 C 383.645 156.060,383.357 154.800,383.159 154.800 C 382.962 154.800,382.800 154.170,382.800 153.400 C 382.800 152.630,382.620 152.000,382.400 152.000 C 382.180 152.000,382.000 151.381,382.000 150.624 C 382.000 149.867,381.833 149.144,381.628 149.017 C 381.423 148.891,381.132 147.798,380.981 146.588 C 380.830 145.379,380.548 144.291,380.353 144.171 C 380.159 144.051,380.000 143.513,380.000 142.976 C 380.000 142.439,379.820 142.000,379.600 142.000 C 379.380 142.000,379.200 141.550,379.200 141.000 C 379.200 140.450,379.044 140.000,378.854 140.000 C 378.664 140.000,378.398 139.194,378.263 138.209 C 378.128 137.224,377.834 136.054,377.609 135.609 C 377.384 135.164,377.020 134.442,376.800 134.005 C 376.580 133.568,376.400 132.938,376.400 132.605 C 376.400 132.272,376.220 132.000,376.000 132.000 C 375.780 132.000,375.600 131.550,375.600 131.000 C 375.600 130.450,375.443 130.000,375.250 130.000 C 375.058 130.000,374.783 129.416,374.641 128.703 C 374.311 127.057,373.496 125.200,373.102 125.200 C 372.936 125.200,372.800 124.840,372.800 124.400 C 372.800 123.960,372.620 123.600,372.400 123.600 C 372.180 123.600,372.000 123.241,372.000 122.803 C 372.000 121.817,370.723 118.800,370.306 118.800 C 370.138 118.800,370.000 118.440,370.000 118.000 C 370.000 117.560,369.820 117.200,369.600 117.200 C 369.380 117.200,369.200 117.021,369.200 116.803 C 369.200 116.120,367.827 113.200,367.506 113.200 C 367.338 113.200,367.200 112.840,367.200 112.400 C 367.200 111.960,367.034 111.600,366.832 111.600 C 366.629 111.600,366.350 111.084,366.212 110.454 C 366.073 109.824,365.609 108.931,365.180 108.471 C 364.751 108.010,364.400 107.446,364.400 107.217 C 364.400 106.988,364.220 106.800,364.000 106.800 C 363.780 106.800,363.600 106.545,363.600 106.232 C 363.600 105.519,362.302 103.206,361.900 103.203 C 361.735 103.201,361.600 102.930,361.600 102.600 C 361.600 102.270,361.420 102.000,361.200 102.000 C 360.980 102.000,360.800 101.662,360.800 101.249 C 360.800 100.836,360.530 100.274,360.200 100.000 C 359.870 99.726,359.600 99.294,359.600 99.039 C 359.600 98.785,359.240 98.317,358.800 98.000 C 358.360 97.683,358.000 97.215,358.000 96.961 C 358.000 96.706,357.730 96.274,357.400 96.000 C 357.070 95.726,356.800 95.204,356.800 94.839 C 356.800 94.475,356.440 93.917,356.000 93.600 C 355.560 93.283,355.200 92.793,355.200 92.512 C 355.200 92.230,355.032 92.000,354.827 92.000 C 354.622 92.000,354.346 91.661,354.215 91.247 C 354.083 90.832,353.441 89.934,352.788 89.250 C 352.135 88.567,351.600 87.834,351.600 87.622 C 351.600 87.410,351.150 86.786,350.600 86.236 C 350.050 85.686,349.600 85.131,349.600 85.001 C 349.600 84.739,349.044 84.036,347.700 82.599 C 347.205 82.070,346.800 81.448,346.800 81.218 C 346.800 80.988,346.665 80.799,346.500 80.799 C 346.335 80.798,345.840 80.257,345.400 79.597 C 344.960 78.936,344.285 78.294,343.900 78.171 C 343.515 78.047,343.200 77.653,343.200 77.294 C 343.200 76.936,341.940 75.429,340.400 73.946 C 338.860 72.463,337.600 71.100,337.600 70.918 C 337.600 70.530,329.512 62.400,329.126 62.400 C 328.983 62.400,327.418 60.960,325.649 59.200 C 323.879 57.440,322.327 56.000,322.199 56.000 C 321.872 56.000,320.943 55.217,319.469 53.700 C 318.774 52.985,317.978 52.400,317.700 52.400 C 317.422 52.400,316.803 51.950,316.325 51.400 C 315.847 50.850,315.300 50.400,315.110 50.400 C 314.919 50.400,314.314 49.950,313.764 49.400 C 313.214 48.850,312.590 48.400,312.378 48.400 C 312.166 48.400,311.433 47.865,310.750 47.212 C 310.066 46.559,309.168 45.917,308.753 45.785 C 308.339 45.654,308.000 45.378,308.000 45.173 C 308.000 44.968,307.812 44.800,307.582 44.800 C 307.352 44.800,306.714 44.350,306.164 43.800 C 305.614 43.250,304.984 42.800,304.765 42.800 C 304.546 42.800,303.980 42.440,303.508 42.000 C 303.036 41.560,302.413 41.200,302.125 41.200 C 301.836 41.200,301.600 41.040,301.600 40.843 C 301.600 40.647,301.150 40.374,300.600 40.236 C 300.050 40.098,299.600 39.808,299.600 39.592 C 299.600 39.377,299.358 39.200,299.062 39.200 C 298.766 39.200,298.207 38.850,297.821 38.423 C 297.434 37.995,296.596 37.531,295.959 37.391 C 295.321 37.251,294.800 36.971,294.800 36.768 C 294.800 36.566,294.455 36.400,294.033 36.400 C 293.612 36.400,293.207 36.258,293.133 36.086 C 292.893 35.518,290.574 34.059,289.476 33.783 C 288.884 33.635,288.400 33.353,288.400 33.157 C 288.400 32.960,288.040 32.800,287.600 32.800 C 287.160 32.800,286.800 32.620,286.800 32.400 C 286.800 32.180,286.530 32.000,286.200 32.000 C 285.870 32.000,285.600 31.840,285.600 31.645 C 285.600 31.449,284.970 31.171,284.200 31.026 C 283.430 30.882,282.800 30.592,282.800 30.382 C 282.800 30.172,282.440 30.000,282.000 30.000 C 281.560 30.000,281.200 29.862,281.200 29.694 C 281.200 29.373,278.280 28.000,277.597 28.000 C 277.379 28.000,277.200 27.820,277.200 27.600 C 277.200 27.380,276.840 27.200,276.400 27.200 C 275.960 27.200,275.600 27.020,275.600 26.800 C 275.600 26.580,275.150 26.400,274.600 26.400 C 274.050 26.400,273.600 26.236,273.600 26.035 C 273.600 25.834,272.835 25.542,271.900 25.386 C 270.965 25.230,270.110 24.989,270.000 24.851 C 269.574 24.317,267.973 23.600,267.205 23.600 C 266.762 23.600,266.400 23.422,266.400 23.205 C 266.400 22.987,265.676 22.694,264.791 22.552 C 263.906 22.411,263.086 22.139,262.968 21.947 C 262.849 21.756,262.313 21.600,261.776 21.600 C 261.239 21.600,260.800 21.420,260.800 21.200 C 260.800 20.980,260.361 20.800,259.824 20.800 C 259.287 20.800,258.739 20.625,258.607 20.412 C 258.475 20.198,257.475 19.905,256.384 19.760 C 255.293 19.615,254.400 19.340,254.400 19.148 C 254.400 18.957,253.770 18.800,253.000 18.800 C 252.230 18.800,251.600 18.620,251.600 18.400 C 251.600 18.180,250.970 18.000,250.200 18.000 C 249.430 18.000,248.800 17.840,248.800 17.645 C 248.800 17.450,248.305 17.195,247.700 17.078 C 247.095 16.961,245.880 16.675,245.000 16.442 C 244.120 16.210,242.725 16.015,241.900 16.010 C 241.075 16.004,240.400 15.820,240.400 15.600 C 240.400 15.380,239.590 15.200,238.600 15.200 C 237.610 15.200,236.800 15.020,236.800 14.800 C 236.800 14.580,236.091 14.400,235.224 14.400 C 234.357 14.400,233.545 14.235,233.421 14.034 C 233.296 13.832,231.216 13.539,228.797 13.382 C 226.379 13.225,224.400 12.940,224.400 12.749 C 224.400 12.557,222.960 12.400,221.200 12.400 C 219.440 12.400,218.000 12.229,218.000 12.021 C 218.000 11.809,215.479 11.548,212.300 11.430 C 209.165 11.314,203.693 11.112,200.140 10.982 C 195.750 10.822,193.596 10.883,193.417 11.173 M208.434 24.789 C 221.407 25.423,231.331 26.961,245.000 30.456 C 248.137 31.258,259.423 34.856,261.000 35.556 C 261.440 35.751,264.140 36.866,267.000 38.033 C 307.862 54.706,344.022 90.238,360.593 130.000 C 361.189 131.430,361.921 133.140,362.220 133.800 C 365.750 141.592,369.948 155.945,372.164 167.800 C 374.530 180.461,375.001 185.822,374.993 200.000 C 374.985 214.616,374.407 220.871,371.905 233.400 C 371.246 236.700,370.618 239.850,370.510 240.400 C 369.812 243.954,365.449 258.386,364.403 260.600 C 364.195 261.040,363.319 263.200,362.455 265.400 C 351.965 292.119,331.944 319.113,309.650 336.600 C 308.248 337.700,306.538 339.066,305.850 339.635 C 297.442 346.598,278.355 357.499,266.000 362.396 C 263.690 363.312,261.440 364.224,261.000 364.424 C 260.319 364.732,251.602 367.604,247.800 368.771 C 243.465 370.103,235.785 371.822,229.200 372.934 C 218.145 374.802,215.329 375.000,199.800 375.000 C 184.271 375.000,181.455 374.802,170.400 372.934 C 96.620 360.469,37.733 300.939,26.438 227.400 C 25.360 220.378,25.159 218.643,24.797 213.200 C 23.638 195.752,24.711 179.716,28.078 164.200 C 28.746 161.120,29.380 158.150,29.486 157.600 C 32.202 143.558,42.286 120.579,53.018 103.975 C 75.669 68.931,113.633 41.262,153.400 30.813 C 156.040 30.119,158.830 29.383,159.600 29.177 C 166.803 27.250,180.688 25.253,189.906 24.820 C 199.028 24.391,200.228 24.389,208.434 24.789 M219.072 207.061 C 217.715 208.418,217.710 208.413,265.056 255.758 C 291.548 282.250,311.716 302.114,312.259 302.251 C 312.781 302.382,313.306 302.649,313.427 302.844 C 313.548 303.040,314.166 303.200,314.800 303.200 C 315.434 303.200,316.064 303.380,316.200 303.600 C 316.336 303.820,316.966 304.000,317.600 304.000 C 318.234 304.000,318.864 303.820,319.000 303.600 C 319.136 303.380,319.670 303.200,320.187 303.200 C 321.678 303.200,324.907 301.296,326.000 299.774 C 326.550 299.007,327.414 297.889,327.920 297.290 C 328.426 296.690,329.140 295.705,329.506 295.100 C 329.873 294.495,330.314 294.000,330.486 294.000 C 330.659 294.000,330.800 293.730,330.800 293.400 C 330.800 293.070,330.939 292.800,331.109 292.800 C 331.279 292.800,331.757 292.170,332.172 291.400 C 332.587 290.630,333.078 290.000,333.263 290.000 C 333.448 290.000,333.600 289.808,333.600 289.573 C 333.600 289.339,334.050 288.557,334.600 287.836 C 335.150 287.114,335.600 286.316,335.600 286.062 C 335.600 285.808,335.780 285.600,336.000 285.600 C 336.220 285.600,336.400 285.412,336.400 285.183 C 336.400 284.954,336.590 284.549,336.821 284.283 C 337.587 283.405,341.200 277.011,341.200 276.534 C 341.200 276.277,341.335 276.007,341.500 275.933 C 341.798 275.801,345.804 267.871,346.921 265.200 C 347.243 264.430,347.879 262.965,348.335 261.944 C 348.790 260.923,349.281 259.617,349.426 259.040 C 349.570 258.464,349.849 257.894,350.044 257.773 C 350.240 257.652,350.400 257.113,350.400 256.576 C 350.400 256.039,350.580 255.600,350.800 255.600 C 351.020 255.600,351.200 255.150,351.200 254.600 C 351.200 254.050,351.380 253.600,351.600 253.600 C 351.820 253.600,352.000 253.246,352.000 252.814 C 352.000 251.929,353.022 248.564,353.613 247.505 C 353.826 247.123,354.000 246.358,354.000 245.805 C 354.000 245.252,354.139 244.800,354.308 244.800 C 354.478 244.800,354.851 243.675,355.136 242.300 C 355.422 240.925,355.838 239.080,356.060 238.200 C 356.283 237.320,356.559 235.925,356.675 235.100 C 356.790 234.275,357.045 233.600,357.242 233.600 C 357.439 233.600,357.600 232.995,357.600 232.255 C 357.600 231.515,357.796 229.940,358.036 228.755 C 360.657 215.789,359.724 211.360,353.580 207.600 C 352.542 206.965,219.701 206.432,219.072 207.061 " stroke="none" fill="#171E22" fill-rule="evenodd">
</path></svg>